<svg width="54" height="54" viewBox="0 0 54 54" fill="none" xmlns="http://www.w3.org/2000/svg">
<circle cx="27" cy="27" r="27" fill="white"/>
<path d="M29.584 36.1387C28.352 36.1387 27.248 35.9387 26.272 35.5387C25.296 35.1387 24.512 34.5467 23.92 33.7627C23.344 32.9787 23.04 32.0347 23.008 30.9307H27.376C27.44 31.5547 27.656 32.0347 28.024 32.3707C28.392 32.6907 28.872 32.8507 29.464 32.8507C30.072 32.8507 30.552 32.7147 30.904 32.4427C31.256 32.1547 31.432 31.7627 31.432 31.2667C31.432 30.8507 31.288 30.5067 31 30.2347C30.728 29.9627 30.384 29.7387 29.968 29.5627C29.568 29.3867 28.992 29.1867 28.24 28.9627C27.152 28.6267 26.264 28.2907 25.576 27.9547C24.888 27.6187 24.296 27.1227 23.8 26.4667C23.304 25.8107 23.056 24.9547 23.056 23.8987C23.056 22.3307 23.624 21.1067 24.76 20.2267C25.896 19.3307 27.376 18.8827 29.2 18.8827C31.056 18.8827 32.552 19.3307 33.688 20.2267C34.824 21.1067 35.432 22.3387 35.512 23.9227H31.072C31.04 23.3787 30.84 22.9547 30.472 22.6507C30.104 22.3307 29.632 22.1707 29.056 22.1707C28.56 22.1707 28.16 22.3067 27.856 22.5787C27.552 22.8347 27.4 23.2107 27.4 23.7067C27.4 24.2507 27.656 24.6747 28.168 24.9787C28.68 25.2827 29.48 25.6107 30.568 25.9627C31.656 26.3307 32.536 26.6827 33.208 27.0187C33.896 27.3547 34.488 27.8427 34.984 28.4827C35.48 29.1227 35.728 29.9467 35.728 30.9547C35.728 31.9147 35.48 32.7867 34.984 33.5707C34.504 34.3547 33.8 34.9787 32.872 35.4427C31.944 35.9067 30.848 36.1387 29.584 36.1387Z" fill="#0F6E8C"/>
</svg>
