<?xml version="1.0" encoding="UTF-8"?>
<svg id="Layer_2" data-name="Layer 2" xmlns="http://www.w3.org/2000/svg" xmlns:xlink="http://www.w3.org/1999/xlink" viewBox="0 0 274.9 110.9">
  <defs>
    <style>
      .cls-1 {
        fill: url(#linear-gradient);
      }

      .cls-1, .cls-2 {
        fill-rule: evenodd;
      }

      .cls-3 {
        fill: #fff;
      }

      .cls-2 {
        fill: url(#linear-gradient-2);
      }
    </style>
    <linearGradient id="linear-gradient" x1="-3309.91" y1="295.85" x2="-3219.09" y2="295.85" gradientTransform="translate(-3218.98 -226) rotate(-180) scale(1 -1)" gradientUnits="userSpaceOnUse">
      <stop offset="0" stop-color="#4f80ff"/>
      <stop offset=".5" stop-color="#2bc4ff"/>
      <stop offset=".99" stop-color="#2fef80"/>
    </linearGradient>
    <linearGradient id="linear-gradient-2" x1="-3309.98" y1="267.1" x2="-3219.26" y2="267.1" xlink:href="#linear-gradient"/>
  </defs>
  <g id="Layer_2-2" data-name="Layer 2">
    <g>
      <path class="cls-1" d="m35.4,87.4h20.4c4.2,0,7.9-2.1,10-5.8l.1-.2c2.1-3.7,2.1-7.9,0-11.5l-3.4-6-6.8-11.7,13.5-23.4,13.5,23.4,3.4,6c6.3,10.9,6.3,24.1,0,35l-.1.2c-6.3,10.9-17.7,17.5-30.3,17.5H0v-23.5h35.4Z"/>
      <path class="cls-2" d="m55.7.2h35.3v23.4h-55.7c-4.2,0-7.8,2.1-9.9,5.6l-.1.1-.1.2-.1.1c-2.1,3.6-2,7.8.1,11.4l3.4,6,6.8,11.7-13.5,23.5-13.5-23.5-3.4-6c-6.3-10.9-6.3-24.1,0-35l.1-.2C11.4,6.6,22.8,0,35.4,0h20.3v.2Z"/>
      <g>
        <path class="cls-3" d="m110.5,47.2v-5.4h7.2v3.2l1.8,1.8h11.2l1.8-1.8v-6.2l-1.8-1.8h-14.3l-5.8-5.8v-10l5.8-5.8h17l5.8,5.8v5.4h-7.2v-3.2l-1.8-1.8h-10.7l-1.8,1.8v5.6l1.8,1.8h14.3l5.8,5.8v10.5l-5.9,5.9h-17.5l-5.7-5.8h0Z"/>
        <path class="cls-3" d="m145.6,46.5V15.2h7.3v28.7l2.8,2.8h10.6l2.8-2.8V15.2h7.3v31.3l-6.5,6.5h-17.8l-6.5-6.5h0Z"/>
        <path class="cls-3" d="m192.8,15.3h6.7l13.8,37.7h-7.4l-3.1-8.4h-13.3l-3.1,8.4h-7.4l13.8-37.7h0Zm8.4,23.3l-5-14.3h-.1l-4.9,14.3h10Z"/>
        <path class="cls-3" d="m209.6,15.3h7.5l9.4,29h.1l9.4-29h7.5l-13.4,37.7h-7.1l-13.4-37.7Z"/>
        <path class="cls-3" d="m247.5,15.3h27.3v6.2h-19.9v9.5h18.3v6.1h-18.4v9.7h19.9v6.2h-27.3V15.3h.1Z"/>
      </g>
      <g>
        <path class="cls-3" d="m110.5,92.8v-2.5h3v1.5l1.9,2h9.5l2-2v-6.2l-2-2h-10.7l-3.7-3.7v-7.6l3.7-3.7h11.7l3.7,3.7v2.6h-2.9v-1.6l-2-2h-9.1l-2,2v5.6l2,2h10.6l3.7,3.7v8.2l-3.7,3.7h-12l-3.7-3.7h0Z"/>
        <path class="cls-3" d="m141.1,84.8l-9.7-16.2h3.3l7.9,13.5h.1l7.9-13.5h3.3l-9.7,16.2v11.6h-3v-11.6h-.1Z"/>
        <path class="cls-3" d="m155.8,92.8v-2.5h3v1.5l1.9,2h9.5l2-2v-6.2l-2-2h-10.7l-3.7-3.7v-7.6l3.7-3.7h11.7l3.7,3.7v2.6h-2.9v-1.6l-2-2h-9.1l-2,2v5.6l2,2h10.7l3.7,3.7v8.2l-3.7,3.7h-12l-3.8-3.7h0Z"/>
        <path class="cls-3" d="m186.2,71.3h-8.4v-2.7h19.9v2.7h-8.5v25.1h-3v-25.1h0Z"/>
        <path class="cls-3" d="m202,68.6h18v2.7h-14.9v9.8h13.8v2.7h-13.8v9.9h14.9v2.7h-18v-27.8h0Z"/>
        <path class="cls-3" d="m225.1,68.6h3.3l8.9,21.5h.1l8.9-21.5h3.3v27.8h-2.9v-22h-.1l-8.1,19.2h-2.3l-8.1-19.2h-.1v22h-2.9v-27.8h0Z"/>
        <path class="cls-3" d="m255.4,92.8v-2.5h3v1.5l1.9,2h9.5l2-2v-6.2l-2-2h-10.6l-3.7-3.7v-7.6l3.7-3.7h11.7l3.7,3.7v2.6h-2.9v-1.6l-2-2h-9.1l-2,2v5.6l2,2h10.6l3.7,3.7v8.2l-3.7,3.7h-12l-3.8-3.7h0Z"/>
      </g>
    </g>
  </g>
</svg>