<svg width="265" height="54" viewBox="0 0 265 54" fill="none" xmlns="http://www.w3.org/2000/svg">
<circle cx="27" cy="27" r="27" fill="white"/>
<path d="M29.584 36.1387C28.352 36.1387 27.248 35.9387 26.272 35.5387C25.296 35.1387 24.512 34.5467 23.92 33.7627C23.344 32.9787 23.04 32.0347 23.008 30.9307H27.376C27.44 31.5547 27.656 32.0347 28.024 32.3707C28.392 32.6907 28.872 32.8507 29.464 32.8507C30.072 32.8507 30.552 32.7147 30.904 32.4427C31.256 32.1547 31.432 31.7627 31.432 31.2667C31.432 30.8507 31.288 30.5067 31 30.2347C30.728 29.9627 30.384 29.7387 29.968 29.5627C29.568 29.3867 28.992 29.1867 28.24 28.9627C27.152 28.6267 26.264 28.2907 25.576 27.9547C24.888 27.6187 24.296 27.1227 23.8 26.4667C23.304 25.8107 23.056 24.9547 23.056 23.8987C23.056 22.3307 23.624 21.1067 24.76 20.2267C25.896 19.3307 27.376 18.8827 29.2 18.8827C31.056 18.8827 32.552 19.3307 33.688 20.2267C34.824 21.1067 35.432 22.3387 35.512 23.9227H31.072C31.04 23.3787 30.84 22.9547 30.472 22.6507C30.104 22.3307 29.632 22.1707 29.056 22.1707C28.56 22.1707 28.16 22.3067 27.856 22.5787C27.552 22.8347 27.4 23.2107 27.4 23.7067C27.4 24.2507 27.656 24.6747 28.168 24.9787C28.68 25.2827 29.48 25.6107 30.568 25.9627C31.656 26.3307 32.536 26.6827 33.208 27.0187C33.896 27.3547 34.488 27.8427 34.984 28.4827C35.48 29.1227 35.728 29.9467 35.728 30.9547C35.728 31.9147 35.48 32.7867 34.984 33.5707C34.504 34.3547 33.8 34.9787 32.872 35.4427C31.944 35.9067 30.848 36.1387 29.584 36.1387Z" fill="#0F6E8C"/>
<path d="M70.952 36.154C69.8227 36.154 68.8107 35.9707 67.916 35.604C67.0213 35.2373 66.3027 34.6947 65.76 33.976C65.232 33.2573 64.9533 32.392 64.924 31.38H68.928C68.9867 31.952 69.1847 32.392 69.522 32.7C69.8593 32.9933 70.2993 33.14 70.842 33.14C71.3993 33.14 71.8393 33.0153 72.162 32.766C72.4847 32.502 72.646 32.1427 72.646 31.688C72.646 31.3067 72.514 30.9913 72.25 30.742C72.0007 30.4927 71.6853 30.2873 71.304 30.126C70.9373 29.9647 70.4093 29.7813 69.72 29.576C68.7227 29.268 67.9087 28.96 67.278 28.652C66.6473 28.344 66.1047 27.8893 65.65 27.288C65.1953 26.6867 64.968 25.902 64.968 24.934C64.968 23.4967 65.4887 22.3747 66.53 21.568C67.5713 20.7467 68.928 20.336 70.6 20.336C72.3013 20.336 73.6727 20.7467 74.714 21.568C75.7553 22.3747 76.3127 23.504 76.386 24.956H72.316C72.2867 24.4573 72.1033 24.0687 71.766 23.79C71.4287 23.4967 70.996 23.35 70.468 23.35C70.0133 23.35 69.6467 23.4747 69.368 23.724C69.0893 23.9587 68.95 24.3033 68.95 24.758C68.95 25.2567 69.1847 25.6453 69.654 25.924C70.1233 26.2027 70.8567 26.5033 71.854 26.826C72.8513 27.1633 73.658 27.486 74.274 27.794C74.9047 28.102 75.4473 28.5493 75.902 29.136C76.3567 29.7227 76.584 30.478 76.584 31.402C76.584 32.282 76.3567 33.0813 75.902 33.8C75.462 34.5187 74.8167 35.0907 73.966 35.516C73.1153 35.9413 72.1107 36.154 70.952 36.154ZM84.0952 20.556V29.796C84.0952 30.72 84.3225 31.4313 84.7772 31.93C85.2318 32.4287 85.8992 32.678 86.7792 32.678C87.6592 32.678 88.3338 32.4287 88.8032 31.93C89.2725 31.4313 89.5072 30.72 89.5072 29.796V20.556H93.2692V29.774C93.2692 31.1527 92.9758 32.3187 92.3892 33.272C91.8025 34.2253 91.0105 34.944 90.0132 35.428C89.0305 35.912 87.9305 36.154 86.7132 36.154C85.4958 36.154 84.4032 35.9193 83.4352 35.45C82.4818 34.966 81.7265 34.2473 81.1692 33.294C80.6118 32.326 80.3332 31.1527 80.3332 29.774V20.556H84.0952ZM107.025 33.272H101.261L100.337 36H96.3989L101.987 20.556H106.343L111.931 36H107.949L107.025 33.272ZM106.057 30.368L104.143 24.714L102.251 30.368H106.057ZM129.63 20.556L124.152 36H119.444L113.966 20.556H117.97L121.798 32.216L125.648 20.556H129.63ZM136.464 23.57V26.694H141.502V29.598H136.464V32.986H142.162V36H132.702V20.556H142.162V23.57H136.464ZM157.854 36.154C156.725 36.154 155.713 35.9707 154.818 35.604C153.924 35.2373 153.205 34.6947 152.662 33.976C152.134 33.2573 151.856 32.392 151.826 31.38H155.83C155.889 31.952 156.087 32.392 156.424 32.7C156.762 32.9933 157.202 33.14 157.744 33.14C158.302 33.14 158.742 33.0153 159.064 32.766C159.387 32.502 159.548 32.1427 159.548 31.688C159.548 31.3067 159.416 30.9913 159.152 30.742C158.903 30.4927 158.588 30.2873 158.206 30.126C157.84 29.9647 157.312 29.7813 156.622 29.576C155.625 29.268 154.811 28.96 154.18 28.652C153.55 28.344 153.007 27.8893 152.552 27.288C152.098 26.6867 151.87 25.902 151.87 24.934C151.87 23.4967 152.391 22.3747 153.432 21.568C154.474 20.7467 155.83 20.336 157.502 20.336C159.204 20.336 160.575 20.7467 161.616 21.568C162.658 22.3747 163.215 23.504 163.288 24.956H159.218C159.189 24.4573 159.006 24.0687 158.668 23.79C158.331 23.4967 157.898 23.35 157.37 23.35C156.916 23.35 156.549 23.4747 156.27 23.724C155.992 23.9587 155.852 24.3033 155.852 24.758C155.852 25.2567 156.087 25.6453 156.556 25.924C157.026 26.2027 157.759 26.5033 158.756 26.826C159.754 27.1633 160.56 27.486 161.176 27.794C161.807 28.102 162.35 28.5493 162.804 29.136C163.259 29.7227 163.486 30.478 163.486 31.402C163.486 32.282 163.259 33.0813 162.804 33.8C162.364 34.5187 161.719 35.0907 160.868 35.516C160.018 35.9413 159.013 36.154 157.854 36.154ZM180.546 20.556L175.2 30.896V36H171.438V30.896L166.092 20.556H170.36L173.352 27.024L176.322 20.556H180.546ZM189.149 36.154C188.02 36.154 187.008 35.9707 186.113 35.604C185.219 35.2373 184.5 34.6947 183.957 33.976C183.429 33.2573 183.151 32.392 183.121 31.38H187.125C187.184 31.952 187.382 32.392 187.719 32.7C188.057 32.9933 188.497 33.14 189.039 33.14C189.597 33.14 190.037 33.0153 190.359 32.766C190.682 32.502 190.843 32.1427 190.843 31.688C190.843 31.3067 190.711 30.9913 190.447 30.742C190.198 30.4927 189.883 30.2873 189.501 30.126C189.135 29.9647 188.607 29.7813 187.917 29.576C186.92 29.268 186.106 28.96 185.475 28.652C184.845 28.344 184.302 27.8893 183.847 27.288C183.393 26.6867 183.165 25.902 183.165 24.934C183.165 23.4967 183.686 22.3747 184.727 21.568C185.769 20.7467 187.125 20.336 188.797 20.336C190.499 20.336 191.87 20.7467 192.911 21.568C193.953 22.3747 194.51 23.504 194.583 24.956H190.513C190.484 24.4573 190.301 24.0687 189.963 23.79C189.626 23.4967 189.193 23.35 188.665 23.35C188.211 23.35 187.844 23.4747 187.565 23.724C187.287 23.9587 187.147 24.3033 187.147 24.758C187.147 25.2567 187.382 25.6453 187.851 25.924C188.321 26.2027 189.054 26.5033 190.051 26.826C191.049 27.1633 191.855 27.486 192.471 27.794C193.102 28.102 193.645 28.5493 194.099 29.136C194.554 29.7227 194.781 30.478 194.781 31.402C194.781 32.282 194.554 33.0813 194.099 33.8C193.659 34.5187 193.014 35.0907 192.163 35.516C191.313 35.9413 190.308 36.154 189.149 36.154ZM209.706 20.556V23.57H205.614V36H201.852V23.57H197.76V20.556H209.706ZM216.856 23.57V26.694H221.894V29.598H216.856V32.986H222.554V36H213.094V20.556H222.554V23.57H216.856ZM243.987 20.556V36H240.225V26.738L236.771 36H233.735L230.259 26.716V36H226.497V20.556H230.941L235.275 31.248L239.565 20.556H243.987ZM253.78 36.154C252.651 36.154 251.639 35.9707 250.744 35.604C249.849 35.2373 249.131 34.6947 248.588 33.976C248.06 33.2573 247.781 32.392 247.752 31.38H251.756C251.815 31.952 252.013 32.392 252.35 32.7C252.687 32.9933 253.127 33.14 253.67 33.14C254.227 33.14 254.667 33.0153 254.99 32.766C255.313 32.502 255.474 32.1427 255.474 31.688C255.474 31.3067 255.342 30.9913 255.078 30.742C254.829 30.4927 254.513 30.2873 254.132 30.126C253.765 29.9647 253.237 29.7813 252.548 29.576C251.551 29.268 250.737 28.96 250.106 28.652C249.475 28.344 248.933 27.8893 248.478 27.288C248.023 26.6867 247.796 25.902 247.796 24.934C247.796 23.4967 248.317 22.3747 249.358 21.568C250.399 20.7467 251.756 20.336 253.428 20.336C255.129 20.336 256.501 20.7467 257.542 21.568C258.583 22.3747 259.141 23.504 259.214 24.956H255.144C255.115 24.4573 254.931 24.0687 254.594 23.79C254.257 23.4967 253.824 23.35 253.296 23.35C252.841 23.35 252.475 23.4747 252.196 23.724C251.917 23.9587 251.778 24.3033 251.778 24.758C251.778 25.2567 252.013 25.6453 252.482 25.924C252.951 26.2027 253.685 26.5033 254.682 26.826C255.679 27.1633 256.486 27.486 257.102 27.794C257.733 28.102 258.275 28.5493 258.73 29.136C259.185 29.7227 259.412 30.478 259.412 31.402C259.412 32.282 259.185 33.0813 258.73 33.8C258.29 34.5187 257.645 35.0907 256.794 35.516C255.943 35.9413 254.939 36.154 253.78 36.154Z" fill="#F9F8F9"/>
</svg>
