<?xml version="1.0" encoding="UTF-8"?>
<svg id="Layer_2" data-name="Layer 2" xmlns="http://www.w3.org/2000/svg" xmlns:xlink="http://www.w3.org/1999/xlink" viewBox="0 0 592.52 564.86">
  <defs>
    <style>
      .cls-1 {
        fill: url(#New_Gradient_Swatch_copy_31-2);
      }

      .cls-1, .cls-2 {
        fill-rule: evenodd;
      }

      .cls-3 {
        fill: #000836;
      }

      .cls-4 {
        fill: #fff;
      }

      .cls-2 {
        fill: url(#New_Gradient_Swatch_copy_31);
      }
    </style>
    <linearGradient id="New_Gradient_Swatch_copy_31" data-name="New Gradient Swatch copy 31" x1="-4147.46" y1="286.7" x2="-4056.65" y2="286.7" gradientTransform="translate(-3897.73) rotate(-180) scale(1 -1)" gradientUnits="userSpaceOnUse">
      <stop offset="0" stop-color="#4f80ff"/>
      <stop offset=".5" stop-color="#2bc4ff"/>
      <stop offset=".99" stop-color="#2fef80"/>
    </linearGradient>
    <linearGradient id="New_Gradient_Swatch_copy_31-2" data-name="New Gradient Swatch copy 31" x1="-4147.46" y1="258.16" x2="-4056.64" y2="258.16" xlink:href="#New_Gradient_Swatch_copy_31"/>
  </defs>
  <g id="Layer_1-2" data-name="Layer 1">
    <rect class="cls-4" width="592.52" height="564.86"/>
    <g>
      <path class="cls-2" d="m194.17,304.29h13.54s6.88,0,6.88,0c4.23,0,7.87-2.1,9.99-5.77l.11-.19c2.12-3.67,2.12-7.87,0-11.53l-3.44-5.96-6.77-11.73,13.54-23.45,13.54,23.45,3.44,5.96c6.31,10.92,6.31,24.06,0,34.98l-.11.19c-6.3,10.93-17.69,17.5-30.31,17.5h-33.96s0,0,0,0h-13.54s-8.17,0-8.17,0v-23.45h21.71s13.54,0,13.54,0h0Z"/>
      <path class="cls-1" d="m214.48,217.11h27.08s8.17,0,8.17,0v23.45h-21.71s-9.91,0-9.91,0h-3.63s-13.54,0-13.54,0h-6.88c-4.19,0-7.79,2.05-9.91,5.64-.03.04-.05.08-.07.13l-.11.19s-.05.08-.07.12c-2.05,3.64-2.02,7.78.07,11.41l3.44,5.96,6.77,11.73-13.54,23.45-13.54-23.45-3.44-5.96c-6.3-10.92-6.3-24.05,0-34.98l.11-.19c6.3-10.93,17.69-17.5,30.31-17.5h20.42Z"/>
      <g>
        <path class="cls-3" d="m269.29,264.06v-5.39h7.22v3.18l1.78,1.78h11.16l1.83-1.83v-6.25l-1.78-1.78h-14.28l-5.82-5.82v-9.97l5.82-5.82h17.03l5.82,5.82v5.44h-7.22v-3.23l-1.78-1.78h-10.67l-1.78,1.78v5.55l1.78,1.78h14.28l5.82,5.82v10.62l-5.93,5.93h-17.46l-5.82-5.82Z"/>
        <path class="cls-3" d="m304.43,263.42v-31.26h7.33v28.72l2.75,2.75h10.56l2.75-2.75v-28.72h7.33v31.26l-6.47,6.47h-17.78l-6.47-6.47Z"/>
        <path class="cls-3" d="m351.64,232.16h6.68l13.8,37.72h-7.44l-3.07-8.35h-13.26l-3.07,8.35h-7.44l13.8-37.72Zm8.35,23.33l-5.01-14.34h-.11l-4.85,14.34h9.97Z"/>
        <path class="cls-3" d="m368.35,232.16h7.54l9.38,28.99h.11l9.38-28.99h7.54l-13.42,37.72h-7.11l-13.42-37.72Z"/>
        <path class="cls-3" d="m406.34,232.16h27.27v6.2h-19.94v9.54h18.38v6.09h-18.38v9.7h19.94v6.2h-27.27v-37.72Z"/>
      </g>
      <g>
        <path class="cls-3" d="m272.55,306.75v-2.47h2.66v1.54l2.52,2.56h11.51l2.56-2.66v-7.92l-2.56-2.56h-12.54l-4.05-4.01v-8.99l4.05-4.05h13.33l4.05,4.05v2.52h-2.66v-1.63l-2.56-2.52h-11l-2.56,2.52v7.18l2.56,2.52h12.54l4.05,4.05v9.79l-4.15,4.15h-13.7l-4.05-4.05Z"/>
        <path class="cls-3" d="m307.83,297.1l-11.04-18.92h2.89l9.46,16.45h.09l9.46-16.45h2.89l-11.04,18.92v13.7h-2.7v-13.7Z"/>
        <path class="cls-3" d="m324.37,306.75v-2.47h2.66v1.54l2.52,2.56h11.51l2.56-2.66v-7.92l-2.56-2.56h-12.54l-4.05-4.01v-8.99l4.05-4.05h13.33l4.05,4.05v2.52h-2.66v-1.63l-2.56-2.52h-11l-2.56,2.52v7.18l2.56,2.52h12.54l4.05,4.05v9.79l-4.15,4.15h-13.7l-4.05-4.05Z"/>
        <path class="cls-3" d="m359.65,280.56h-9.88v-2.38h22.46v2.38h-9.88v30.24h-2.7v-30.24Z"/>
        <path class="cls-3" d="m377.82,278.18h20.22v2.42h-17.52v12.58h16.17v2.42h-16.17v12.77h17.52v2.42h-20.22v-32.62Z"/>
        <path class="cls-3" d="m404.57,278.18h3.12l10.76,26.52h.09l10.76-26.52h3.17v32.62h-2.56v-27.59h-.09l-10.16,24.56h-2.28l-10.16-24.56h-.09v27.59h-2.56v-32.62Z"/>
      </g>
    </g>
  </g>
</svg>