<?xml version="1.0" encoding="UTF-8"?>
<svg id="Layer_2" data-name="Layer 2" xmlns="http://www.w3.org/2000/svg" xmlns:xlink="http://www.w3.org/1999/xlink" viewBox="0 0 90.82 110.64">
  <defs>
    <style>
      .cls-1 {
        fill: url(#New_Gradient_Swatch_copy_31-2);
      }

      .cls-1, .cls-2 {
        fill-rule: evenodd;
      }

      .cls-2 {
        fill: url(#New_Gradient_Swatch_copy_31);
      }
    </style>
    <linearGradient id="New_Gradient_Swatch_copy_31" data-name="New Gradient Swatch copy 31" x1="-4415.77" y1="69.59" x2="-4324.95" y2="69.59" gradientTransform="translate(-4324.95) rotate(-180) scale(1 -1)" gradientUnits="userSpaceOnUse">
      <stop offset="0" stop-color="#4f80ff"/>
      <stop offset=".5" stop-color="#2bc4ff"/>
      <stop offset=".99" stop-color="#2fef80"/>
    </linearGradient>
    <linearGradient id="New_Gradient_Swatch_copy_31-2" data-name="New Gradient Swatch copy 31" x1="-4415.77" y1="41.04" x2="-4324.95" y2="41.04" xlink:href="#New_Gradient_Swatch_copy_31"/>
  </defs>
  <g id="Layer_1-2" data-name="Layer 1">
    <path class="cls-2" d="m35.25,87.18h13.54s6.88,0,6.88,0c4.23,0,7.87-2.1,9.99-5.77l.11-.19c2.12-3.67,2.12-7.87,0-11.53l-3.44-5.96-6.77-11.73,13.54-23.45,13.54,23.45,3.44,5.96c6.31,10.92,6.31,24.06,0,34.98l-.11.19c-6.3,10.93-17.69,17.5-30.31,17.5H21.71s0,0,0,0h-13.54s-8.17,0-8.17,0v-23.45h21.71s13.54,0,13.54,0h0Z"/>
    <path class="cls-1" d="m55.56,0h27.08s8.17,0,8.17,0v23.45h-21.71s-9.91,0-9.91,0h-3.63s-13.54,0-13.54,0h-6.88c-4.19,0-7.79,2.05-9.91,5.64-.03.04-.05.08-.07.13l-.11.19s-.05.08-.07.12c-2.05,3.64-2.02,7.78.07,11.41l3.44,5.96,6.77,11.73-13.54,23.45-13.54-23.45-3.44-5.96c-6.3-10.92-6.3-24.05,0-34.98l.11-.19C11.14,6.57,22.53,0,35.14,0h20.42Z"/>
  </g>
</svg>