<svg width="24" height="25" viewBox="0 0 24 25" fill="none" xmlns="http://www.w3.org/2000/svg">
<path opacity="0.1" fill-rule="evenodd" clip-rule="evenodd" d="M0 12.3857C0 5.75833 5.37258 0.385742 12 0.385742C18.6274 0.385742 24 5.75833 24 12.3857C24 19.0132 18.6274 24.3857 12 24.3857C5.37258 24.3857 0 19.0132 0 12.3857Z" fill="#F9F8F9"/>
<path fill-rule="evenodd" clip-rule="evenodd" d="M11.6406 10.1397L11.6658 10.5549L11.2461 10.5041C9.71843 10.3092 8.38383 9.64819 7.25067 8.5381L6.69668 7.98729L6.55399 8.39404C6.25181 9.30076 6.44487 10.2583 7.0744 10.9023C7.41015 11.2583 7.33461 11.3091 6.75544 11.0973C6.55399 11.0295 6.37772 10.9786 6.36093 11.004C6.30218 11.0634 6.50363 11.8345 6.66311 12.1396C6.88134 12.5633 7.32621 12.9785 7.81305 13.2242L8.22434 13.4191L7.73751 13.4276C7.26746 13.4276 7.25067 13.4361 7.30103 13.614C7.46891 14.1648 8.13201 14.7496 8.87066 15.0038L9.39108 15.1817L8.93781 15.4529C8.26631 15.8427 7.4773 16.063 6.68829 16.08C6.31057 16.0885 6 16.1223 6 16.1478C6 16.2325 7.02404 16.7071 7.61999 16.8935C9.40786 17.4443 11.5315 17.207 13.1263 16.2664C14.2595 15.597 15.3926 14.2665 15.9214 12.9785C16.2068 12.2921 16.4922 11.0379 16.4922 10.4363C16.4922 10.0465 16.5174 9.99563 16.9874 9.52956C17.2644 9.25839 17.5246 8.9618 17.575 8.87706C17.6589 8.71605 17.6505 8.71605 17.2224 8.86011C16.509 9.11433 16.4083 9.08044 16.7608 8.6991C17.021 8.42794 17.3316 7.93644 17.3316 7.79238C17.3316 7.76696 17.2057 7.80933 17.063 7.8856C16.9119 7.97034 16.5761 8.09745 16.3243 8.17371L15.8711 8.31777L15.4598 8.03813C15.2331 7.8856 14.9142 7.71612 14.7463 7.66527C14.3182 7.54664 13.6635 7.56359 13.2774 7.69917C12.2282 8.0805 11.5651 9.06349 11.6406 10.1397Z" fill="white"/>
</svg>
