<svg width="24" height="25" viewBox="0 0 24 25" fill="none" xmlns="http://www.w3.org/2000/svg">
<path opacity="0.1" fill-rule="evenodd" clip-rule="evenodd" d="M0 12.3857C0 5.75833 5.37258 0.385742 12 0.385742C18.6274 0.385742 24 5.75833 24 12.3857C24 19.0132 18.6274 24.3857 12 24.3857C5.37258 24.3857 0 19.0132 0 12.3857Z" fill="#F9F8F9"/>
<path fill-rule="evenodd" clip-rule="evenodd" d="M18.4 12.3765C18.4 12.8093 18.3559 13.2415 18.2694 13.6628C18.185 14.0741 18.06 14.4779 17.8962 14.864C17.7362 15.2431 17.5378 15.6086 17.3059 15.9493C17.0774 16.2879 16.8143 16.6056 16.5252 16.8952C16.2355 17.1835 15.9167 17.446 15.5783 17.6754C15.2364 17.9056 14.8705 18.1038 14.4911 18.2645C14.1045 18.4274 13.6997 18.5523 13.2888 18.6365C12.8669 18.7233 12.4331 18.7676 11.9997 18.7676C11.5659 18.7676 11.1321 18.7233 10.7109 18.6365C10.2993 18.5523 9.89459 18.4274 9.50832 18.2645C9.12893 18.1038 8.76264 17.9056 8.42076 17.6754C8.0823 17.446 7.76354 17.1835 7.47446 16.8952C7.18508 16.6056 6.92193 16.2879 6.69317 15.9493C6.46253 15.6086 6.26376 15.2431 6.10313 14.864C5.93936 14.4779 5.81405 14.0741 5.72936 13.6628C5.64374 13.2415 5.59998 12.8093 5.59998 12.3765C5.59998 11.9433 5.64371 11.5102 5.72939 11.0898C5.81408 10.6785 5.93938 10.2741 6.10316 9.88868C6.26378 9.50921 6.46256 9.14348 6.69319 8.80269C6.92195 8.4638 7.18511 8.14672 7.47449 7.85681C7.76357 7.56844 8.08233 7.30665 8.42078 7.07759C8.76267 6.84634 9.12895 6.6482 9.50834 6.48716C9.89462 6.32392 10.2993 6.1988 10.7109 6.11517C11.1322 6.02905 11.5659 5.98535 11.9997 5.98535C12.4332 5.98535 12.8669 6.02905 13.2888 6.11517C13.6998 6.19882 14.1045 6.32394 14.4911 6.48716C14.8705 6.64818 15.2364 6.84634 15.5783 7.07759C15.9168 7.30665 16.2356 7.56844 16.5252 7.85681C16.8143 8.14672 17.0775 8.4638 17.3059 8.80269C17.5378 9.14348 17.7362 9.50924 17.8962 9.88868C18.06 10.2741 18.185 10.6785 18.2694 11.0898C18.3559 11.5102 18.4 11.9433 18.4 12.3765ZM9.66766 7.43989C8.14351 8.15859 7.00595 9.56101 6.65124 11.2512C6.79533 11.2524 9.07295 11.2811 11.6971 10.5849C10.7512 8.90659 9.74049 7.53697 9.66766 7.43989ZM12.15 11.4253C9.33577 12.2666 6.6353 12.2061 6.53844 12.2024C6.53686 12.261 6.53405 12.3178 6.53405 12.3765C6.53405 13.7786 7.06376 15.0568 7.93444 16.0233C7.93256 16.0205 9.42828 13.3707 12.3778 12.4183C12.449 12.3946 12.5216 12.3733 12.5934 12.3528C12.4563 12.0426 12.3065 11.7318 12.15 11.4253ZM15.6092 8.28029C14.647 7.43301 13.3835 6.91907 11.9997 6.91907C11.5556 6.91907 11.1246 6.97275 10.7118 7.07198C10.7937 7.18185 11.8203 8.54181 12.755 10.2557C14.8173 9.48362 15.5958 8.30025 15.6092 8.28029ZM12.966 13.2571C12.9538 13.2612 12.9416 13.2646 12.9297 13.269C9.70494 14.3916 8.65184 16.6539 8.64045 16.6786C9.56833 17.3992 10.7321 17.8339 11.9997 17.8339C12.7566 17.8339 13.4776 17.68 14.1335 17.4014C14.0526 16.9245 13.7351 15.2531 12.966 13.2571ZM15.0539 16.9027C16.2811 16.0757 17.1527 14.7625 17.3959 13.2415C17.2834 13.2053 15.7542 12.7219 13.9901 13.0043C14.707 14.9716 14.9983 16.5738 15.0539 16.9027ZM13.1757 11.0689C13.3026 11.3292 13.4254 11.5941 13.5388 11.8603C13.5792 11.9558 13.6185 12.0494 13.657 12.143C15.5346 11.9071 17.3843 12.3041 17.4634 12.3203C17.4509 11.0265 16.9874 9.83904 16.2206 8.90942C16.2102 8.92405 15.3336 10.1889 13.1757 11.0689Z" fill="white"/>
</svg>
