<svg width="24" height="25" viewBox="0 0 24 25" fill="none" xmlns="http://www.w3.org/2000/svg">
<path opacity="0.1" fill-rule="evenodd" clip-rule="evenodd" d="M0 12.3857C0 5.75833 5.37258 0.385742 12 0.385742C18.6274 0.385742 24 5.75833 24 12.3857C24 19.0132 18.6274 24.3857 12 24.3857C5.37258 24.3857 0 19.0132 0 12.3857Z" fill="#F9F8F9"/>
<path fill-rule="evenodd" clip-rule="evenodd" d="M17.0008 8.26002C17.5515 8.41115 17.9853 8.85646 18.1325 9.42196C18.4 10.4469 18.4 12.5854 18.4 12.5854C18.4 12.5854 18.4 14.7238 18.1325 15.7487C17.9853 16.3142 17.5515 16.7596 17.0008 16.9108C16.0027 17.1854 12 17.1854 12 17.1854C12 17.1854 7.99728 17.1854 6.9991 16.9108C6.44834 16.7596 6.01459 16.3142 5.86739 15.7487C5.59998 14.7238 5.59998 12.5854 5.59998 12.5854C5.59998 12.5854 5.59998 10.4469 5.86739 9.42196C6.01459 8.85646 6.44834 8.41115 6.9991 8.26002C7.99728 7.98535 12 7.98535 12 7.98535C12 7.98535 16.0027 7.98535 17.0008 8.26002ZM10.8 10.7853V14.7853L14 12.7854L10.8 10.7853Z" fill="white"/>
</svg>
