<svg width="24" height="25" viewBox="0 0 24 25" fill="none" xmlns="http://www.w3.org/2000/svg">
<path opacity="0.1" fill-rule="evenodd" clip-rule="evenodd" d="M0 12.3857C0 5.75833 5.37258 0.385742 12 0.385742C18.6274 0.385742 24 5.75833 24 12.3857C24 19.0132 18.6274 24.3857 12 24.3857C5.37258 24.3857 0 19.0132 0 12.3857Z" fill="#F9F8F9"/>
<path fill-rule="evenodd" clip-rule="evenodd" d="M12.0006 5.98535C10.2624 5.98535 10.0443 5.99295 9.36161 6.02402C8.68027 6.05522 8.2152 6.16309 7.80827 6.32136C7.38733 6.48482 7.03026 6.70349 6.67452 7.05936C6.31852 7.4151 6.09985 7.77217 5.93585 8.19297C5.77718 8.60005 5.66918 9.06525 5.63851 9.74632C5.60798 10.429 5.59998 10.6473 5.59998 12.3854C5.59998 14.1236 5.60771 14.341 5.63864 15.0237C5.66998 15.7051 5.77784 16.1701 5.93598 16.5771C6.09958 16.998 6.31825 17.3551 6.67412 17.7108C7.02972 18.0668 7.38679 18.286 7.80747 18.4495C8.21467 18.6077 8.67987 18.7156 9.36108 18.7468C10.0438 18.7779 10.2618 18.7855 11.9998 18.7855C13.7381 18.7855 13.9555 18.7779 14.6382 18.7468C15.3195 18.7156 15.7851 18.6077 16.1924 18.4495C16.6132 18.286 16.9697 18.0668 17.3253 17.7108C17.6813 17.3551 17.9 16.998 18.064 16.5772C18.2213 16.1701 18.3293 15.7049 18.3613 15.0238C18.392 14.3412 18.4 14.1236 18.4 12.3854C18.4 10.6473 18.392 10.4291 18.3613 9.74646C18.3293 9.06512 18.2213 8.60005 18.064 8.19311C17.9 7.77217 17.6813 7.4151 17.3253 7.05936C16.9693 6.70336 16.6133 6.48469 16.192 6.32136C15.7839 6.16309 15.3186 6.05522 14.6373 6.02402C13.9546 5.99295 13.7373 5.98535 11.9986 5.98535H12.0006ZM11.4264 7.13868C11.5968 7.13841 11.7869 7.13868 12.0005 7.13868C13.7094 7.13868 13.9119 7.14481 14.5867 7.17548C15.2107 7.20401 15.5494 7.30828 15.775 7.39588C16.0737 7.51188 16.2866 7.65055 16.5105 7.87455C16.7345 8.09856 16.8731 8.31189 16.9894 8.61056C17.077 8.8359 17.1814 9.17457 17.2098 9.79857C17.2405 10.4732 17.2471 10.6759 17.2471 12.3839C17.2471 14.092 17.2405 14.2946 17.2098 14.9693C17.1813 15.5933 17.077 15.932 16.9894 16.1573C16.8734 16.456 16.7345 16.6686 16.5105 16.8925C16.2865 17.1165 16.0738 17.2552 15.775 17.3712C15.5497 17.4592 15.2107 17.5632 14.5867 17.5917C13.912 17.6224 13.7094 17.6291 12.0005 17.6291C10.2916 17.6291 10.0891 17.6224 9.41439 17.5917C8.79038 17.5629 8.45171 17.4587 8.22598 17.3711C7.92731 17.2551 7.71397 17.1164 7.48997 16.8924C7.26597 16.6684 7.1273 16.4556 7.01103 16.1568C6.92343 15.9314 6.81903 15.5928 6.79063 14.9688C6.75996 14.2941 6.75383 14.0914 6.75383 12.3823C6.75383 10.6732 6.75996 10.4716 6.79063 9.79697C6.81916 9.17297 6.92343 8.8343 7.01103 8.60869C7.12703 8.31002 7.26597 8.09669 7.48997 7.87269C7.71397 7.64868 7.92731 7.51002 8.22598 7.39375C8.45158 7.30575 8.79038 7.20175 9.41439 7.17308C10.0048 7.14641 10.2336 7.13841 11.4264 7.13708V7.13868ZM15.4169 8.20136C14.9928 8.20136 14.6488 8.54496 14.6488 8.9691C14.6488 9.39311 14.9928 9.73711 15.4169 9.73711C15.8409 9.73711 16.1849 9.39311 16.1849 8.9691C16.1849 8.5451 15.8409 8.20136 15.4169 8.20136ZM12.0006 9.0987C10.1855 9.0987 8.71389 10.5703 8.71389 12.3854C8.71389 14.2005 10.1855 15.6714 12.0006 15.6714C13.8157 15.6714 15.2868 14.2005 15.2868 12.3854C15.2868 10.5703 13.8157 9.0987 12.0006 9.0987ZM12.0006 10.252C13.1787 10.252 14.1339 11.2071 14.1339 12.3854C14.1339 13.5635 13.1787 14.5188 12.0006 14.5188C10.8223 14.5188 9.86721 13.5635 9.86721 12.3854C9.86721 11.2071 10.8223 10.252 12.0006 10.252Z" fill="white"/>
</svg>
