<svg width="37" height="37" viewBox="0 0 37 37" fill="none" xmlns="http://www.w3.org/2000/svg">
<path d="M27.3438 22.5419L23.6037 25.9808C21.6806 27.6573 19.4211 28.903 16.9769 29.6344L17.9693 34.2643C18.02 34.5007 18.1256 34.7219 18.2775 34.9099C18.4294 35.098 18.6235 35.2477 18.8439 35.347C19.0644 35.4463 19.3051 35.4923 19.5466 35.4814C19.7881 35.4705 20.0237 35.403 20.2344 35.2843L26.255 31.8886C27.1024 31.3737 27.7643 30.603 28.1453 29.6875C28.5263 28.7721 28.6066 27.7594 28.3748 26.7953L27.3438 22.5419ZM11.2011 13.5293L14.4212 9.70617L10.4054 8.73727C9.42917 8.39684 8.36269 8.4212 7.40298 8.80584C6.44327 9.19049 5.65517 9.90944 5.18425 10.8299L1.79229 16.8422C1.67344 17.0528 1.6058 17.2884 1.59485 17.53C1.58389 17.7716 1.62991 18.0123 1.72921 18.2328C1.8285 18.4533 1.97827 18.6474 2.16642 18.7993C2.35457 18.9512 2.57582 19.0567 2.81229 19.1073L7.54945 20.1227C8.33479 17.7121 9.57432 15.474 11.2011 13.5293ZM25.7978 13.5916C26.2552 13.5916 26.7023 13.4559 27.0825 13.2018C27.4628 12.9477 27.7592 12.5866 27.9343 12.164C28.1093 11.7415 28.1551 11.2765 28.0659 10.8279C27.9766 10.3793 27.7564 9.9673 27.433 9.64389C27.1096 9.32048 26.6975 9.10024 26.2489 9.01101C25.8003 8.92178 25.3354 8.96758 24.9128 9.1426C24.4903 9.31763 24.1291 9.61403 23.875 9.99432C23.6209 10.3746 23.4853 10.8217 23.4853 11.2791C23.4855 11.8923 23.7292 12.4804 24.1628 12.914C24.5965 13.3476 25.1845 13.5913 25.7978 13.5916Z" fill="#027794"/>
<path d="M34.8433 3.17879C34.7737 2.91474 34.6353 2.67387 34.4422 2.48079C34.2491 2.2877 34.0083 2.14931 33.7442 2.07975C30.5817 1.25768 27.2513 1.34583 24.1367 2.33405C21.0221 3.32226 18.2501 5.17033 16.14 7.6653L11.2011 13.5294C8.73384 16.4721 7.16864 20.0647 6.69355 23.8754C6.66308 24.1096 6.68681 24.3476 6.7629 24.5712C6.83898 24.7948 6.9654 24.9979 7.1324 25.1649L11.9117 29.9442C12.0548 30.0874 12.2247 30.201 12.4118 30.2785C12.5988 30.356 12.7992 30.3959 13.0017 30.3959C13.0461 30.3959 13.0905 30.3936 13.1357 30.3899C17.0049 30.0702 20.6716 28.5258 23.6036 25.9809L29.2509 20.7883C31.7547 18.6838 33.6095 15.9116 34.5995 12.7942C35.5895 9.67677 35.6741 6.34235 34.8433 3.17879ZM25.7977 13.5915C25.3404 13.5915 24.8933 13.4559 24.513 13.2018C24.1327 12.9477 23.8363 12.5866 23.6613 12.164C23.4862 11.7414 23.4404 11.2765 23.5297 10.8279C23.6189 10.3793 23.8391 9.96727 24.1625 9.64386C24.486 9.32045 24.898 9.10021 25.3466 9.01098C25.7952 8.92175 26.2601 8.96755 26.6827 9.14258C27.1052 9.3176 27.4664 9.614 27.7205 9.99429C27.9746 10.3746 28.1102 10.8217 28.1102 11.279C28.11 11.8923 27.8663 12.4804 27.4327 12.914C26.999 13.3476 26.411 13.5913 25.7977 13.5915Z" fill="#C3E8F1"/>
</svg>
